HIERARCHY
ROOT Hips
{
  OFFSET 55.4237 96.9124 12.0519
  CHANNELS 6 Xposition Yposition Zposition Zrotation Xrotation Yrotation
  JOINT spine
  {
    OFFSET 0 7.96568 0.458067
    CHANNELS 3 Zrotation Xrotation Yrotation
    JOINT spine1
    {
      OFFSET 0 10.2431 0
      CHANNELS 3 Zrotation Xrotation Yrotation
      JOINT spine2
      {
        OFFSET 0 9.81475 0
        CHANNELS 3 Zrotation Xrotation Yrotation
        JOINT Neck
        {
          OFFSET 0 25.1986 1.20138
          CHANNELS 3 Zrotation Xrotation Yrotation
          JOINT Head
          {
            OFFSET 0 7.61315 0
            CHANNELS 3 Zrotation Xrotation Yrotation
            End Site
            {
              OFFSET 0 18.4281 -6.07733
            }
          }
        }
        JOINT RightShoulder
        {
          OFFSET -4.1327 10.5992 -0.575451
          CHANNELS 3 Zrotation Xrotation Yrotation
          JOINT RightArm
          {
            OFFSET 0 13.9018 0
            CHANNELS 3 Zrotation Xrotation Yrotation
            JOINT RightArmRoll
            {
              OFFSET 0 7.01789 0
              CHANNELS 3 Zrotation Xrotation Yrotation
              JOINT RightForeArm
              {
                OFFSET 0 20.4406 0
                CHANNELS 3 Zrotation Xrotation Yrotation
                JOINT RightForeArmRoll
                {
                  OFFSET 0 7.87515 0
                  CHANNELS 3 Zrotation Xrotation Yrotation
                  JOINT RightHand
                  {
                    OFFSET 0 15.8037 0
                    CHANNELS 3 Zrotation Xrotation Yrotation
                    End Site
                    {
                      OFFSET 0 0 0
                    }
                  }
                }
              }
            }
          }
        }
        JOINT LeftShoulder
        {
          OFFSET 4.1327 10.5992 -0.575451
          CHANNELS 3 Zrotation Xrotation Yrotation
          JOINT LeftArm
          {
            OFFSET 0 13.9018 0
            CHANNELS 3 Zrotation Xrotation Yrotation
            JOINT LeftArmRoll
            {
              OFFSET 0 7.01789 0
              CHANNELS 3 Zrotation Xrotation Yrotation
              JOINT LeftForeArm
              {
                OFFSET 0 20.4406 0
                CHANNELS 3 Zrotation Xrotation Yrotation
                JOINT LeftForeArmRoll
                {
                  OFFSET 0 7.87515 0
                  CHANNELS 3 Zrotation Xrotation Yrotation
                  JOINT LeftHand
                  {
                    OFFSET 0 15.8037 0
                    CHANNELS 3 Zrotation Xrotation Yrotation
                    End Site
                    {
                      OFFSET 0 0 0
                    }
                  }
                }
              }
            }
          }
        }
      }
    }
  }
  JOINT RightUpLeg
  {
    OFFSET -7.06048 -1.2947 -1.0861
    CHANNELS 3 Zrotation Xrotation Yrotation
    JOINT RightUpLegRoll
    {
      OFFSET 0 18.5308 0
      CHANNELS 3 Zrotation Xrotation Yrotation
      JOINT RightLeg
      {
        OFFSET 0 -22.9476 0
        CHANNELS 3 Zrotation Xrotation Yrotation
        JOINT RightLegRoll
        {
          OFFSET 0 23.0226 0
          CHANNELS 3 Zrotation Xrotation Yrotation
          JOINT RightFoot
          {
            OFFSET 0 19.1625 0
            CHANNELS 3 Zrotation Xrotation Yrotation
            JOINT RightToeBase
            {
              OFFSET 0 16.0188 0
              CHANNELS 3 Zrotation Xrotation Yrotation
              End Site
              {
                OFFSET 0.00678979 7.75782 -0.894207
              }
            }
          }
        }
      }
    }
  }
  JOINT LeftUpLeg
  {
    OFFSET 7.06048 -1.2947 -1.0861
    CHANNELS 3 Zrotation Xrotation Yrotation
    JOINT LeftUpLegRoll
    {
      OFFSET 0 18.5309 0
      CHANNELS 3 Zrotation Xrotation Yrotation
      JOINT LeftLeg
      {
        OFFSET 0 22.9475 0
        CHANNELS 3 Zrotation Xrotation Yrotation
        JOINT LeftLegRoll
        {
          OFFSET 0 23.2355 0
          CHANNELS 3 Zrotation Xrotation Yrotation
          JOINT LeftFoot
          {
            OFFSET 0 18.9496 0
            CHANNELS 3 Zrotation Xrotation Yrotation
            JOINT LeftToeBase
            {
              OFFSET 0 16.0188 0
              CHANNELS 3 Zrotation Xrotation Yrotation
              End Site
              {
                OFFSET -0.0304289 7.75782 -0.894207
              }
            }
          }
        }
      }
    }
  }
}
MOTION
Frames: 9
Frame Time: 0.00208333
53.9291 96.8968 11.8119 1.29772 -7.4008 4.32555 0.192461 -1.39466 -0.131794 0.384635 1.21267 -0.286717 0.388288 2.8577 -0.29328 1.32536 36.4487 6.59428 -0.611877 2.78008 7.1806 19.5519 -9.02245 -4.77381 24.8924 22.1077 80.8937 -1.23411e-005 2.64381e-006 3.3226e-006 166.49 78.2344 -155.97 3.64592e-006 -2.39968e-006 -3.00477 8.02988 -4.95138 0.697658 -31.8882 -6.30556 2.33386 -12.3657 40.9607 -87.0032 -1.75139e-005 1.70996e-006 -1.34723e-006 30.6363 84.0759 -33.561 4.80393e-006 -1.41137e-006 3.00305 -8.02966 -4.95142 -0.697647 176.772 -6.29074 4.45046 180 7.01512e-015 178.78 177.231 6.16825 179.766 4.22935e-006 -2.56211e-006 0.0731479 -18.6966 68.0622 19.5772 8.13649 25.2327 -3.48774 -176.875 -7.33835 -0.359311 4.5067e-006 -1.99009e-005 -1.29373 -0.848965 -8.07959 0.155928 5.36346e-007 -3.52843e-006 -0.0788951 18.3222 67.4778 -19.1068 -8.1286 25.2331 3.48437 
53.94 96.9021 11.781 1.29375 -7.38065 4.30218 0.192278 -1.39473 -0.13292 0.384587 1.21232 -0.289295 0.388264 2.85735 -0.295857 1.31859 36.444 6.60793 -0.680851 2.76324 7.18554 19.5387 -9.01637 -4.76574 24.9901 22.2512 80.9521 -1.23411e-005 2.64381e-006 3.3226e-006 166.478 78.3395 -155.96 3.64592e-006 -2.39968e-006 -3.00477 8.02988 -4.95138 0.697658 -31.9164 -6.27312 2.30334 -12.3663 40.9204 -87.0382 -1.75139e-005 1.70996e-006 -1.34723e-006 31.1011 84.1837 -34.0595 4.80393e-006 -1.41137e-006 3.00303 -8.02966 -4.95142 -0.697647 176.771 -6.26742 4.44561 180 7.01512e-015 178.781 177.231 6.15197 179.766 4.22935e-006 -2.56211e-006 0.073065 -18.6869 68.0499 19.5669 8.13649 25.2327 -3.48774 -176.877 -7.29774 -0.359192 4.5067e-006 -1.99009e-005 -1.29271 -0.853928 -8.1067 0.155863 5.36346e-007 -3.52843e-006 -0.0792701 18.3311 67.488 -19.1163 -8.1286 25.2331 3.48437 
53.9367 97.0406 11.7617 1.28982 -7.35973 4.27824 0.192097 -1.39487 -0.134099 0.384485 1.2118 -0.291971 0.388186 2.85684 -0.29853 1.31171 36.4376 6.62191 -0.750211 2.74969 7.19072 19.528 -9.01071 -4.75825 25.0974 22.3869 81.0064 -1.23411e-005 2.64381e-006 3.3226e-006 166.456 78.4706 -155.943 3.64592e-006 -2.39968e-006 -3.00477 8.02988 -4.95138 0.697658 -31.9494 -6.24606 2.27853 -12.3693 40.8778 -87.0742 -1.75139e-005 1.70996e-006 -1.34723e-006 31.5438 84.2813 -34.5341 4.80393e-006 -1.41137e-006 3.00302 -8.02966 -4.95142 -0.697647 176.77 -6.2384 4.43939 180 7.01512e-015 178.781 177.233 6.14282 179.765 4.22935e-006 -2.56211e-006 0.0733026 -18.6812 68.0421 19.5605 8.13649 25.2327 -3.48774 -176.878 -7.25944 -0.359013 4.5067e-006 -1.99009e-005 -1.29173 -0.859064 -8.12761 0.15557 5.36346e-007 -3.52843e-006 -0.0792891 18.3378 67.495 -19.1235 -8.1286 25.2331 3.48437 
53.9339 97.0176 11.7521 1.28594 -7.33809 4.25378 0.191914 -1.39509 -0.135319 0.384327 1.21116 -0.294706 0.388052 2.8562 -0.30126 1.30475 36.429 6.63612 -0.819734 2.73952 7.19605 19.5199 -9.00548 -4.75139 25.2133 22.5149 81.0569 -1.23411e-005 2.64381e-006 3.3226e-006 166.423 78.6267 -155.92 3.64592e-006 -2.39968e-006 -3.00477 8.02988 -4.95138 0.697658 -31.9868 -6.22387 2.2589 -12.3751 40.833 -87.1104 -1.75139e-005 1.70996e-006 -1.34723e-006 31.9589 84.3682 -34.9789 4.80393e-006 -1.41137e-006 3.00301 -8.02966 -4.95142 -0.697647 176.769 -6.20445 4.43201 180 7.01512e-015 178.782 177.236 6.13981 179.763 4.22935e-006 -2.56211e-006 0.0738087 -18.6788 68.0383 19.5575 8.13649 25.2327 -3.48774 -176.88 -7.22312 -0.358756 4.5067e-006 -1.99009e-005 -1.2908 -0.864343 -8.14313 0.155082 5.36346e-007 -3.52843e-006 -0.0790096 18.3427 67.4994 -19.1287 -8.1286 25.2331 3.48437 
53.9355 96.9069 11.7341 1.28214 -7.31581 4.22888 0.191725 -1.39534 -0.136566 0.384112 1.21045 -0.297458 0.387861 2.85548 -0.304007 1.29778 36.418 6.65041 -0.889197 2.73284 7.20146 19.5146 -9.0007 -4.74516 25.3371 22.6357 81.1043 -1.23411e-005 2.64381e-006 3.3226e-006 166.378 78.8064 -155.89 3.64592e-006 -2.39968e-006 -3.00477 8.02988 -4.95138 0.697658 -32.0286 -6.20601 2.24389 -12.3842 40.7858 -87.146 -1.75139e-005 1.70996e-006 -1.34723e-006 32.3407 84.4437 -35.388 4.80393e-006 -1.41137e-006 3.00299 -8.02966 -4.95142 -0.697647 176.768 -6.1663 4.42368 180 7.01513e-015 178.783 177.241 6.14196 179.762 4.22935e-006 -2.56211e-006 0.0745314 -18.6793 68.0378 19.5573 8.13649 25.2327 -3.48774 -176.882 -7.18844 -0.358402 4.5067e-006 -1.99009e-005 -1.28991 -0.869739 -8.15405 0.154432 5.36346e-007 -3.52843e-006 -0.0784893 18.3459 67.5013 -19.132 -8.1286 25.2331 3.48437 
53.9406 96.9536 11.709 1.27842 -7.29294 4.2036 0.191525 -1.39563 -0.137827 0.383838 1.20969 -0.300189 0.387612 2.85473 -0.306731 1.29083 36.4043 6.66467 -0.958379 2.72976 7.20687 19.5123 -8.99639 -4.73961 25.4677 22.7495 81.1489 -1.23411e-005 2.64381e-006 3.3226e-006 166.321 79.0084 -155.852 3.64592e-006 -2.39968e-006 -3.00477 8.02988 -4.95138 0.697658 -32.0745 -6.19197 2.23298 -12.397 40.7363 -87.1802 -1.75139e-005 1.70996e-006 -1.34723e-006 32.6833 84.5074 -35.7552 4.80393e-006 -1.41137e-006 3.00298 -8.02966 -4.95142 -0.697647 176.767 -6.1247 4.41459 180 7.01513e-015 178.784 177.247 6.14829 179.76 4.22935e-006 -2.56211e-006 0.0754185 -18.6821 68.0402 19.5596 8.13649 25.2327 -3.48774 -176.884 -7.15505 -0.357932 4.5067e-006 -1.99009e-005 -1.28905 -0.875222 -8.16118 0.153653 5.36346e-007 -3.52843e-006 -0.0777858 18.3479 67.5014 -19.1339 -8.1286 25.2331 3.48437 
53.9411 96.8978 11.6922 1.27479 -7.26955 4.178 0.191312 -1.39594 -0.139088 0.383506 1.20894 -0.302858 0.387303 2.85397 -0.309393 1.28395 36.3875 6.67874 -1.02706 2.73037 7.21222 19.513 -8.99256 -4.73475 25.6044 22.8567 81.1912 -1.23411e-005 2.64381e-006 3.3226e-006 166.253 79.2315 -155.808 3.64592e-006 -2.39968e-006 -3.00477 8.02988 -4.95138 0.697658 -32.1243 -6.18122 2.22563 -12.4139 40.6843 -87.2121 -1.75139e-005 1.70996e-006 -1.34723e-006 32.9811 84.5588 -36.0747 4.80393e-006 -1.41137e-006 3.00297 -8.02966 -4.95142 -0.697647 176.766 -6.08041 4.40496 180 7.01513e-015 178.785 177.254 6.15783 179.759 4.22935e-006 -2.56211e-006 0.0764181 -18.6868 68.0447 19.5636 8.13649 25.2327 -3.48774 -176.887 -7.12262 -0.357327 4.5067e-006 -1.99009e-005 -1.28823 -0.880765 -8.16532 0.152779 5.36346e-007 -3.52843e-006 -0.0769565 18.3487 67.5 -19.1346 -8.1286 25.2331 3.48437 
53.9415 96.9084 11.687 1.27126 -7.24571 4.15214 0.191079 -1.39624 -0.140337 0.383113 1.20824 -0.305426 0.386933 2.85327 -0.311952 1.27719 36.3673 6.69252 -1.09501 2.73478 7.21744 19.517 -8.98923 -4.7306 25.7462 22.9575 81.2318 -1.23411e-005 2.64381e-006 3.3226e-006 166.171 79.4745 -155.756 3.64592e-006 -2.39968e-006 -3.00477 8.02988 -4.95138 0.697658 -32.1777 -6.17322 2.22128 -12.4355 40.6298 -87.2409 -1.75139e-005 1.70996e-006 -1.34723e-006 33.2285 84.5972 -36.3405 4.80393e-006 -1.41137e-006 3.00295 -8.02966 -4.95142 -0.697647 176.765 -6.03417 4.39499 180 7.01513e-015 178.786 177.261 6.16956 179.757 4.22935e-006 -2.56211e-006 0.0774782 -18.6928 68.0508 19.5691 8.13649 25.2327 -3.48774 -176.889 -7.09081 -0.356569 4.5067e-006 -1.99009e-005 -1.28743 -0.886338 -8.16726 0.151841 5.36346e-007 -3.52843e-006 -0.0760592 18.3487 67.4975 -19.1344 -8.1286 25.2331 3.48437 
53.9426 96.9105 11.6662 1.26785 -7.22147 4.1261 0.190824 -1.39653 -0.14156 0.38266 1.20762 -0.307852 0.386501 2.85265 -0.314369 1.27061 36.3434 6.70586 -1.16202 2.74309 7.22244 19.5243 -8.9864 -4.7272 25.8922 23.0523 81.2713 -1.23411e-005 2.64381e-006 3.3226e-006 166.076 79.7361 -155.696 3.64592e-006 -2.39968e-006 -3.00477 8.02988 -4.95138 0.697658 -32.2346 -6.16746 2.2194 -12.4622 40.5728 -87.2659 -1.75139e-005 1.70996e-006 -1.34723e-006 33.4205 84.6222 -36.5475 4.80393e-006 -1.41137e-006 3.00294 -8.02966 -4.95142 -0.697647 176.763 -5.98673 4.38487 180 7.01514e-015 178.787 177.268 6.18252 179.756 4.22935e-006 -2.56211e-006 0.0785467 -18.6996 68.0579 19.5754 8.13649 25.2327 -3.48774 -176.892 -7.05927 -0.355638 4.5067e-006 -1.99009e-005 -1.28665 -0.891914 -8.16782 0.150873 5.36346e-007 -3.52843e-006 -0.0751514 18.3482 67.4944 -19.1336 -8.1286 25.2331 3.48437 
